HIERARCHY
ROOT Junyuan_V1:Solving:Hips
{
	OFFSET 0.000000 0.000000 0.000000
	CHANNELS 6 Xposition Yposition Zposition Xrotation Yrotation Zrotation
	JOINT Junyuan_V1:Solving:Spine
	{
		OFFSET 0.000000 -11.180205 2.228564
		CHANNELS 6 Xposition Yposition Zposition Xrotation Yrotation Zrotation
		JOINT Junyuan_V1:Solving:Spine1
		{
			OFFSET 0.000000 -8.682996 1.531049
			CHANNELS 6 Xposition Yposition Zposition Xrotation Yrotation Zrotation
			JOINT Junyuan_V1:Solving:Spine2
			{
				OFFSET 0.000000 -8.783394 0.768450
				CHANNELS 6 Xposition Yposition Zposition Xrotation Yrotation Zrotation
				JOINT Junyuan_V1:Solving:Spine3
				{
					OFFSET 0.000000 -8.816944 0.000000
					CHANNELS 6 Xposition Yposition Zposition Xrotation Yrotation Zrotation
					JOINT Junyuan_V1:Solving:Neck
					{
						OFFSET 0.000000 -11.336071 -1.133605
						CHANNELS 6 Xposition Yposition Zposition Xrotation Yrotation Zrotation
						JOINT Junyuan_V1:Solving:Neck1
						{
							OFFSET 0.000000 -7.643246 -0.668695
							CHANNELS 6 Xposition Yposition Zposition Xrotation Yrotation Zrotation
							JOINT Junyuan_V1:Solving:Head
							{
								OFFSET 0.000000 -7.555870 -1.332303
								CHANNELS 6 Xposition Yposition Zposition Xrotation Yrotation Zrotation
								JOINT Junyuan_V1:Solving:HeadEnd
								{
									OFFSET 0.000000 -9.728081 0.000002
									CHANNELS 6 Xposition Yposition Zposition Xrotation Yrotation Zrotation
									End Site
									{
										OFFSET 0.000000 -9.728081 0.000002
									}
								}
							}
						}
					}
					JOINT Junyuan_V1:Solving:RightShoulder
					{
						OFFSET 0.000000 -8.097195 -5.270916
						CHANNELS 6 Xposition Yposition Zposition Xrotation Yrotation Zrotation
						JOINT Junyuan_V1:Solving:RightArm
						{
							OFFSET -20.762394 -0.000008 0.000000
							CHANNELS 6 Xposition Yposition Zposition Xrotation Yrotation Zrotation
							JOINT Junyuan_V1:Solving:RightForeArm
							{
								OFFSET -29.048946 -0.000008 0.000000
								CHANNELS 6 Xposition Yposition Zposition Xrotation Yrotation Zrotation
								JOINT Junyuan_V1:Solving:RightHand
								{
									OFFSET -22.031235 -0.000008 0.000000
									CHANNELS 6 Xposition Yposition Zposition Xrotation Yrotation Zrotation
									JOINT Junyuan_V1:Solving:RightHandThumb1
									{
										OFFSET -3.579254 2.890213 -2.661497
										CHANNELS 6 Xposition Yposition Zposition Xrotation Yrotation Zrotation
										End Site
										{
											OFFSET -5.229485 0.000000 -5.277840
										}
									}
									JOINT Junyuan_V1:Solving:RightHandMiddle1
									{
										OFFSET -9.544678 -0.000004 0.061184
										CHANNELS 6 Xposition Yposition Zposition Xrotation Yrotation Zrotation
										End Site
										{
											OFFSET -7.429878 -0.000004 0.000000
										}
									}
								}
							}
						}
					}
					JOINT Junyuan_V1:Solving:LeftShoulder
					{
						OFFSET 0.000000 -8.097195 -5.270916
						CHANNELS 6 Xposition Yposition Zposition Xrotation Yrotation Zrotation
						JOINT Junyuan_V1:Solving:LeftArm
						{
							OFFSET 20.762394 -0.000008 0.000000
							CHANNELS 6 Xposition Yposition Zposition Xrotation Yrotation Zrotation
							JOINT Junyuan_V1:Solving:LeftForeArm
							{
								OFFSET 29.048946 -0.000008 0.000000
								CHANNELS 6 Xposition Yposition Zposition Xrotation Yrotation Zrotation
								JOINT Junyuan_V1:Solving:LeftHand
								{
									OFFSET 22.031235 -0.000008 0.000000
									CHANNELS 6 Xposition Yposition Zposition Xrotation Yrotation Zrotation
									JOINT Junyuan_V1:Solving:LeftHandThumb1
									{
										OFFSET 3.579254 2.890213 -2.661497
										CHANNELS 6 Xposition Yposition Zposition Xrotation Yrotation Zrotation
										End Site
										{
											OFFSET 5.229485 0.000000 -5.277840
										}
									}
									JOINT Junyuan_V1:Solving:LeftHandMiddle1
									{
										OFFSET 9.544678 -0.000004 0.061184
										CHANNELS 6 Xposition Yposition Zposition Xrotation Yrotation Zrotation
										End Site
										{
											OFFSET 7.429878 -0.000004 0.000000
										}
									}
								}
							}
						}
					}
				}
			}
		}
	}
	JOINT Junyuan_V1:Solving:RightUpLeg
	{
		OFFSET -10.825166 0.000000 0.000000
		CHANNELS 6 Xposition Yposition Zposition Xrotation Yrotation Zrotation
		JOINT Junyuan_V1:Solving:RightLeg
		{
			OFFSET 0.000000 43.678444 -0.000006
			CHANNELS 6 Xposition Yposition Zposition Xrotation Yrotation Zrotation
			JOINT Junyuan_V1:Solving:RightFoot
			{
				OFFSET 0.000000 36.488441 -0.000006
				CHANNELS 6 Xposition Yposition Zposition Xrotation Yrotation Zrotation
				JOINT Junyuan_V1:Solving:RightForeFoot
				{
					OFFSET 0.000000 3.967834 -0.000000
					CHANNELS 6 Xposition Yposition Zposition Xrotation Yrotation Zrotation
					JOINT Junyuan_V1:Solving:RightToeBase
					{
						OFFSET 0.000000 0.000000 -15.539299
						CHANNELS 6 Xposition Yposition Zposition Xrotation Yrotation Zrotation
						JOINT Junyuan_V1:Solving:RightToeBaseEnd
						{
							OFFSET 0.000000 0.000000 -3.486985
							CHANNELS 6 Xposition Yposition Zposition Xrotation Yrotation Zrotation
							End Site
							{
								OFFSET 0.000000 -3.486992 0.000000
							}
						}
					}
				}
			}
		}
	}
	JOINT Junyuan_V1:Solving:LeftUpLeg
	{
		OFFSET 10.825166 0.000000 0.000000
		CHANNELS 6 Xposition Yposition Zposition Xrotation Yrotation Zrotation
		JOINT Junyuan_V1:Solving:LeftLeg
		{
			OFFSET 0.000000 43.678444 -0.000006
			CHANNELS 6 Xposition Yposition Zposition Xrotation Yrotation Zrotation
			JOINT Junyuan_V1:Solving:LeftFoot
			{
				OFFSET 0.000000 36.488441 -0.000006
				CHANNELS 6 Xposition Yposition Zposition Xrotation Yrotation Zrotation
				JOINT Junyuan_V1:Solving:LeftForeFoot
				{
					OFFSET 0.000000 3.967834 -0.000000
					CHANNELS 6 Xposition Yposition Zposition Xrotation Yrotation Zrotation
					JOINT Junyuan_V1:Solving:LeftToeBase
					{
						OFFSET 0.000000 0.000000 -15.539299
						CHANNELS 6 Xposition Yposition Zposition Xrotation Yrotation Zrotation
						JOINT Junyuan_V1:Solving:LeftToeBaseEnd
						{
							OFFSET 0.000000 0.000000 -3.974441
							CHANNELS 6 Xposition Yposition Zposition Xrotation Yrotation Zrotation
							End Site
							{
								OFFSET 0.000000 -3.974442 0.000000
							}
						}
					}
				}
			}
		}
	}
}
MOTION
Frames: 4
Frame Time: 0.041667
-49.733376 -27.633163 -84.352646 49.501536 -175.423614 0.957245 0.000001 -11.180171 2.228553 13.512863 1.343046 0.912045 -0.000004 -8.682994 1.531060 15.876899 0.057863 0.168499 0.000011 -8.783389 0.768472 23.279621 -4.392930 2.064608 -0.000006 -8.816951 0.000015 -8.342546 -0.567398 -1.470774 -0.000001 -11.336081 -1.133610 -32.194913 -8.098295 4.919866 0.000007 -7.643239 -0.668702 6.900722 0.654083 0.215185 0.000004 -7.555871 -1.332302 0.550905 0.035719 0.115510 -0.000000 -9.728088 0.000003 -0.000001 -0.000000 -0.000000 0.000009 -8.097187 -5.270934 0.000006 7.530006 22.642890 -20.762403 -0.000013 0.000003 -70.380134 -12.337097 -93.511430 -29.048965 -0.000025 0.000002 -38.251064 -28.343989 -20.520204 -22.031237 -0.000018 0.000013 2.662131 -6.766653 21.535306 -3.579277 2.890219 -2.661471 0.000003 0.000005 0.000001 -9.544713 -0.000001 0.061225 0.000002 0.000006 -0.000006 0.000009 -8.097191 -5.270934 -0.000002 -12.422318 -17.618623 20.762390 -0.000033 0.000013 -81.864072 23.648060 90.526091 29.048941 -0.000020 0.000004 -58.577970 7.134373 11.491113 22.031239 -0.000020 -0.000011 2.455308 5.939556 -22.508156 3.579270 2.890204 -2.661510 -0.000001 0.000010 -0.000008 9.544692 -0.000008 0.061165 0.000001 0.000000 -0.000001 -10.825157 0.000036 -0.000011 -70.770179 7.527200 7.611170 0.000010 43.678448 0.000012 39.487567 0.000000 0.000001 -0.000003 36.488430 -0.000009 -8.512048 13.957219 -2.285119 -0.000004 3.967835 0.000000 0.000000 0.000001 -0.000000 -0.000007 -0.000005 -15.539292 4.769030 0.000001 0.000000 0.000004 -0.000008 -3.486979 -0.000000 -0.000001 0.000000 10.825168 0.000025 -0.000010 -69.451228 -16.153807 -16.535782 -0.000006 43.678474 -0.000006 31.904278 0.000004 0.000003 0.000006 36.488445 0.000001 3.689981 -4.737148 4.226119 0.000005 3.967827 0.000008 0.000001 -0.000001 -0.000000 0.000010 -0.000006 -15.539310 -1.745664 -0.000003 -0.000000 0.000009 -0.000015 -3.974435 0.000000 -0.000002 -0.000000 
-49.819679 -27.620663 -84.374344 49.428423 -175.437739 1.021175 0.000002 -11.180210 2.228579 13.440210 1.357986 0.938561 0.000001 -8.682996 1.531064 15.768557 0.064261 0.225016 0.000006 -8.783391 0.768437 23.564079 -4.379012 1.807067 -0.000000 -8.816947 0.000003 -8.317839 -0.554013 -1.403873 0.000006 -11.336054 -1.133597 -32.140510 -8.149676 4.948520 -0.000005 -7.643255 -0.668715 6.918442 0.661597 0.052988 0.000008 -7.555855 -1.332286 0.593541 0.032750 0.107322 0.000002 -9.728081 0.000020 0.000009 0.000000 0.000000 0.000008 -8.097187 -5.270902 0.000005 7.336337 22.820285 -20.762398 -0.000015 -0.000003 -70.762980 -11.918788 -93.332308 -29.048958 -0.000020 0.000005 -38.163081 -28.435454 -20.516336 -22.031256 -0.000020 -0.000006 2.626481 -6.692792 21.484915 -3.579266 2.890208 -2.661499 0.000006 -0.000002 0.000005 -9.544701 -0.000010 0.061166 0.000001 -0.000001 0.000000 0.000008 -8.097198 -5.270904 -0.000002 -12.789609 -17.619839 20.762392 -0.000021 0.000022 -82.120976 24.276024 90.172881 29.048925 0.000003 -0.000009 -59.478742 6.255688 10.471768 22.031242 -0.000032 -0.000020 2.706062 6.222296 -23.561113 3.579248 2.890218 -2.661493 0.000002 -0.000010 -0.000009 9.544669 -0.000001 0.061184 0.000001 0.000001 -0.000001 -10.825165 -0.000003 0.000017 -71.256768 8.948775 7.118703 -0.000001 43.678432 0.000001 40.296313 -0.000004 0.000001 0.000005 36.488422 -0.000003 -8.773568 13.844017 -2.416650 -0.000008 3.967827 -0.000002 0.000000 0.000002 -0.000000 -0.000002 0.000003 -15.539291 4.542451 0.000002 0.000000 0.000008 -0.000008 -3.486978 -0.000001 -0.000005 -0.000000 10.825165 -0.000013 0.000016 -69.466794 -16.019597 -16.444415 -0.000006 43.678448 0.000011 31.843831 0.000003 0.000003 -0.000006 36.488445 0.000003 3.673975 -4.844529 4.236613 0.000003 3.967827 0.000006 0.000002 0.000001 -0.000000 -0.000005 -0.000005 -15.539307 -1.696184 0.000003 -0.000000 -0.000009 -0.000008 -3.974451 -0.000000 -0.000002 -0.000000 
-49.912292 -27.595947 -84.412109 49.348421 -175.438818 1.098031 -0.000003 -11.180189 2.228560 13.434546 1.353993 0.926118 -0.000002 -8.682987 1.531060 15.769430 0.074809 0.184753 -0.000007 -8.783405 0.768434 23.662232 -4.352784 1.664558 -0.000003 -8.816952 0.000021 -8.321853 -0.536294 -1.327762 -0.000002 -11.336060 -1.133639 -32.130340 -8.206622 4.996615 -0.000002 -7.643253 -0.668695 7.083784 0.714921 -0.148202 0.000004 -7.555876 -1.332298 0.630485 0.031518 0.101809 0.000003 -9.728096 0.000021 -0.000004 0.000000 -0.000001 -0.000001 -8.097187 -5.270941 0.000006 7.155530 22.978768 -20.762388 -0.000007 0.000007 -71.075399 -11.503215 -93.162681 -29.048958 -0.000012 0.000009 -38.018336 -28.580162 -20.505939 -22.031218 -0.000017 -0.000003 2.617239 -6.667760 21.488820 -3.579274 2.890212 -2.661508 0.000006 0.000002 0.000004 -9.544695 -0.000006 0.061195 0.000002 -0.000000 -0.000003 0.000000 -8.097176 -5.270941 -0.000000 -13.102542 -17.542086 20.762381 -0.000024 0.000002 -82.416088 25.157725 89.894456 29.048956 -0.000005 -0.000008 -60.605798 5.361923 9.418453 22.031229 -0.000016 -0.000026 3.020905 6.640880 -24.529170 3.579258 2.890211 -2.661481 0.000004 0.000000 0.000005 9.544697 -0.000008 0.061193 0.000002 -0.000006 0.000005 -10.825176 -0.000004 0.000005 -71.595744 10.406485 6.591251 0.000005 43.678452 -0.000000 40.738342 -0.000000 0.000001 0.000003 36.488441 -0.000007 -8.807812 13.777425 -2.584516 -0.000006 3.967834 0.000004 -0.000000 0.000002 0.000000 -0.000011 -0.000007 -15.539303 4.330857 -0.000001 0.000000 -0.000003 -0.000007 -3.486982 0.000000 -0.000001 -0.000000 10.825166 0.000011 -0.000009 -69.477961 -15.844415 -16.347404 0.000003 43.678467 0.000009 31.750701 -0.000001 0.000002 0.000006 36.488434 -0.000007 3.740570 -4.984773 4.201980 0.000008 3.967827 -0.000020 0.000002 -0.000002 -0.000000 -0.000008 -0.000006 -15.539314 -1.713890 0.000002 0.000001 0.000007 -0.000008 -3.974442 -0.000001 -0.000005 -0.000000 
-49.988934 -27.577110 -84.432869 49.279531 -175.493474 1.133754 -0.000003 -11.180201 2.228541 13.458895 1.351164 0.947687 0.000003 -8.683012 1.531049 15.801924 0.078198 0.174491 -0.000004 -8.783396 0.768463 23.673019 -4.312203 1.519982 0.000003 -8.816934 0.000008 -8.384330 -0.527732 -1.312410 -0.000003 -11.336063 -1.133558 -32.059371 -8.205801 5.032925 0.000003 -7.643235 -0.668697 7.305447 0.768226 -0.342358 0.000002 -7.555847 -1.332324 0.642302 0.029748 0.098565 0.000001 -9.728104 0.000011 -0.000001 0.000000 -0.000000 0.000003 -8.097183 -5.270891 0.000003 6.974226 23.120684 -20.762394 -0.000007 0.000004 -71.250758 -11.093183 -92.985854 -29.048962 -0.000005 -0.000005 -37.905805 -28.761425 -20.538596 -22.031248 -0.000021 -0.000009 2.575604 -6.594819 21.389282 -3.579268 2.890203 -2.661496 0.000006 -0.000005 0.000002 -9.544680 -0.000010 0.061187 0.000002 0.000004 -0.000003 0.000003 -8.097202 -5.270892 -0.000003 -13.335314 -17.828800 20.762379 -0.000021 -0.000001 -82.385632 25.550524 89.715894 29.048937 -0.000011 -0.000007 -61.667333 4.689602 8.622234 22.031225 -0.000021 -0.000030 3.393690 7.166301 -25.424461 3.579287 2.890203 -2.661483 0.000005 0.000000 -0.000007 9.544698 0.000006 0.061204 0.000005 -0.000002 0.000006 -10.825167 -0.000002 -0.000013 -71.871717 11.862789 6.120599 0.000001 43.678455 -0.000004 41.017335 0.000002 0.000001 0.000007 36.488415 -0.000005 -8.782220 13.684796 -2.796562 -0.000008 3.967827 -0.000005 0.000000 0.000001 0.000000 -0.000004 -0.000019 -15.539310 4.277464 -0.000004 0.000000 0.000004 -0.000015 -3.486992 0.000001 0.000004 -0.000000 10.825164 0.000004 -0.000020 -69.465770 -15.682861 -16.195760 -0.000010 43.678463 0.000013 31.673182 0.000001 0.000003 -0.000011 36.488438 -0.000005 3.791497 -5.105190 4.193614 -0.000004 3.967819 -0.000005 0.000001 0.000000 0.000000 0.000012 0.000000 -15.539309 -1.733678 0.000000 0.000001 0.000003 -0.000008 -3.974446 -0.000000 -0.000002 0.000000 
